<svg width="27" height="26" viewBox="0 0 27 26" fill="none" xmlns="http://www.w3.org/2000/svg">
<path fill-rule="evenodd" clip-rule="evenodd" d="M13.5 0C6.04416 0 0 5.8203 0 13C0 20.1797 6.04416 26 13.5 26C20.9558 26 27 20.1797 27 13C27 5.8203 20.9558 0 13.5 0ZM10.5318 6.10856C11.2999 6.0749 11.5453 6.06667 13.5007 6.06667H13.4984C15.4544 6.06667 15.6989 6.0749 16.467 6.10856C17.2335 6.14236 17.757 6.25921 18.216 6.43067C18.69 6.60762 19.0905 6.84451 19.491 7.23018C19.8915 7.61556 20.1375 8.00239 20.322 8.4584C20.499 8.89925 20.6205 9.40308 20.6565 10.1412C20.691 10.8808 20.7 11.1171 20.7 13.0001C20.7 14.8831 20.691 15.1188 20.6565 15.8584C20.6205 16.5962 20.499 17.1002 20.322 17.5412C20.1375 17.997 19.8915 18.3839 19.491 18.7692C19.0909 19.1549 18.6898 19.3924 18.2164 19.5695C17.7583 19.7409 17.2345 19.8578 16.468 19.8916C15.7 19.9252 15.4553 19.9335 13.4998 19.9335C11.5445 19.9335 11.2993 19.9252 10.5312 19.8916C9.76489 19.8578 9.24153 19.7409 8.78343 19.5695C8.31017 19.3924 7.90847 19.1549 7.50841 18.7692C7.10806 18.3839 6.86206 17.997 6.678 17.541C6.5001 17.1002 6.37875 16.5963 6.3435 15.8582C6.3087 15.1187 6.3 14.8831 6.3 13.0001C6.3 11.1171 6.309 10.8806 6.34335 10.1411C6.37785 9.40322 6.49935 8.89925 6.67785 8.45826C6.86236 8.00239 7.10836 7.61556 7.50886 7.23018C7.90907 6.84465 8.31077 6.60776 8.78433 6.43067C9.24213 6.25921 9.76534 6.14236 10.5318 6.10856Z" fill="white"/>
<path fill-rule="evenodd" clip-rule="evenodd" d="M12.8547 7.31613C12.9802 7.31594 13.1151 7.31599 13.2607 7.31606L13.5006 7.31613C15.4231 7.31613 15.6509 7.32277 16.4101 7.35599C17.1121 7.3869 17.4931 7.49986 17.7469 7.59476C18.0829 7.72043 18.3224 7.87065 18.5743 8.11332C18.8263 8.35599 18.9823 8.58711 19.1131 8.91066C19.2117 9.15478 19.3291 9.52167 19.3611 10.1977C19.3956 10.9286 19.4031 11.1481 19.4031 12.9985C19.4031 14.8488 19.3956 15.0684 19.3611 15.7993C19.329 16.4753 19.2117 16.8422 19.1131 17.0863C18.9826 17.4099 18.8263 17.6403 18.5743 17.8828C18.3223 18.1255 18.083 18.2757 17.7469 18.4013C17.4934 18.4967 17.1121 18.6093 16.4101 18.6403C15.6511 18.6735 15.4231 18.6807 13.5006 18.6807C11.5781 18.6807 11.3502 18.6735 10.5912 18.6403C9.88921 18.6091 9.5082 18.4961 9.25425 18.4012C8.91825 18.2755 8.67824 18.1253 8.42624 17.8826C8.17424 17.64 8.01824 17.4094 7.88744 17.0857C7.78889 16.8416 7.67143 16.4747 7.63948 15.7987C7.60498 15.0678 7.59808 14.8483 7.59808 12.9968C7.59808 11.1452 7.60498 10.9268 7.63948 10.1959C7.67158 9.51994 7.78889 9.15304 7.88744 8.90864C8.01794 8.58508 8.17424 8.35397 8.42624 8.1113C8.67824 7.86863 8.91825 7.71841 9.25425 7.59245C9.50805 7.49712 9.88921 7.38445 10.5912 7.35339C11.2554 7.3245 11.5128 7.31584 12.8547 7.31439V7.31613ZM17.344 8.46736C16.867 8.46736 16.48 8.8396 16.48 9.29908C16.48 9.75842 16.867 10.1311 17.344 10.1311C17.821 10.1311 18.208 9.75842 18.208 9.29908C18.208 8.83974 17.821 8.46707 17.344 8.46707V8.46736ZM9.80311 13.0001C9.80311 11.0338 11.4586 9.43956 13.5005 9.43948C15.5425 9.43948 17.1976 11.0337 17.1976 13.0001C17.1976 14.9664 15.5426 16.5599 13.5006 16.5599C11.4587 16.5599 9.80311 14.9664 9.80311 13.0001Z" fill="white"/>
<path d="M13.5007 10.6889C14.8261 10.6889 15.9007 11.7236 15.9007 13.0001C15.9007 14.2764 14.8261 15.3112 13.5007 15.3112C12.1751 15.3112 11.1006 14.2764 11.1006 13.0001C11.1006 11.7236 12.1751 10.6889 13.5007 10.6889V10.6889Z" fill="white"/>
</svg>
