<svg width="27" height="26" viewBox="0 0 27 26" fill="none" xmlns="http://www.w3.org/2000/svg">
<path fill-rule="evenodd" clip-rule="evenodd" d="M13.5 0C6.04416 0 0 5.8203 0 13C0 20.1797 6.04416 26 13.5 26C20.9558 26 27 20.1797 27 13C27 5.8203 20.9558 0 13.5 0ZM6.48091 10.7672H9.54031V19.6189H6.48091V10.7672ZM9.7418 8.02896C9.72195 7.16105 9.07743 6.5 8.03083 6.5C6.98423 6.5 6.3 7.16105 6.3 8.02896C6.3 8.87889 6.96401 9.55898 7.99112 9.55898H8.01067C9.07743 9.55898 9.7418 8.87889 9.7418 8.02896ZM17.0511 10.5593C19.0644 10.5593 20.5737 11.8247 20.5737 14.5436L20.5735 19.6189H17.5143V14.8832C17.5143 13.6937 17.0715 12.882 15.964 12.882C15.1188 12.882 14.6154 13.4292 14.3943 13.9577C14.3134 14.1472 14.2935 14.4111 14.2935 14.6756V19.6192H11.2337C11.2337 19.6192 11.2741 11.598 11.2337 10.7674H14.2935V12.0212C14.6996 11.4185 15.4268 10.5593 17.0511 10.5593Z" fill="white"/>
</svg>
